Patient4_TMGait_0pt4_01_left_09_GRF.mot
version=1
nRows=58
nColumns=19
inDegrees=no
endheader
time	F1x	F1y	F1z	M1x	M1y	M1z	F2x	F2y	F2z	M2x	M2y	M2z	EC1x	EC1y	EC1z	EC2x	EC2y	EC2z
10.63	1.2438	3.3018	-3.5473	-0.098132	3.9993	3.4838	-50.8808	780.9134	-68.0076	289.0243	89.9665	833.8471	-0.0592	0.0182	-0.0073	-0.0462	0.0165	0.9585
10.6435	0.75193	2.63	-2.3799	-0.21081	2.6314	2.7459	-44.7859	769.8534	-63.7832	284.5687	83.445	820.2818	-0.0592	0.0182	-0.0073	-0.0462	0.0165	0.9585
10.657	0.36571	2.0739	-1.3974	-0.31457	1.4854	2.1442	-38.6878	758.329	-59.6253	280.0013	76.8428	805.5504	-0.0592	0.0182	-0.0073	-0.0462	0.0165	0.9585
10.6705	0.092377	1.676	-0.65605	-0.40176	0.62492	1.7156	-32.893	747.6024	-55.7871	275.801	70.5273	791.0278	-0.0592	0.0182	-0.0073	-0.0462	0.0165	0.9585
10.684	-0.078556	1.4323	-0.14976	-0.469	0.043012	1.4526	-27.5402	738.8973	-52.4293	272.4064	64.7337	778.0884	-0.0592	0.0182	-0.0073	-0.0462	0.0165	0.9585
10.6975	-0.18006	1.3091	0.1574	-0.51429	-0.3066	1.3138	-22.658	733.1747	-49.6577	270.1406	59.608	767.8519	-0.0592	0.0182	-0.0073	-0.0462	0.0165	0.9585
10.711	-0.24027	1.2517	0.31954	-0.53402	-0.4926	1.2429	-18.1928	730.9751	-47.5226	269.1632	55.2133	760.9887	-0.0592	0.0182	-0.0073	-0.0462	0.0165	0.9585
10.7245	-0.28414	1.1867	0.38318	-0.52105	-0.57355	1.1673	-14.0758	732.3494	-46.0491	269.4491	51.5723	757.6594	-0.0592	0.0182	-0.0073	-0.0462	0.0165	0.9585
10.738	-0.33124	1.039	0.39663	-0.46217	-0.60679	1.0162	-10.2397	736.8477	-45.2158	270.7963	48.6576	757.4908	-0.0592	0.0182	-0.0073	-0.0462	0.0165	0.9585
10.7515	-0.3911	0.73237	0.38814	-0.33684	-0.62255	0.69925	-6.65	743.6118	-44.9817	272.8657	46.4302	759.6978	-0.0592	0.0182	-0.0073	-0.0462	0.0165	0.9585
10.765	-0.46415	0.19567	0.38733	-0.12192	-0.65026	0.12573	-3.3253	751.499	-45.2493	275.2317	44.8125	763.2156	-0.0592	0.0182	-0.0073	-0.0462	0.0165	0.9585
10.7785	-0.54161	-0.63415	0.39871	0.20358	-0.69247	-0.78541	-0.32049	759.2331	-45.8924	277.4366	43.715	766.8385	-0.0592	0.0182	-0.0073	-0.0462	0.0165	0.9585
10.792	-0.60345	-1.7898	0.43298	0.65211	-0.75052	-2.0733	2.2936	765.6002	-46.7581	279.0575	43.0269	769.4157	-0.0592	0.0182	-0.0073	-0.0462	0.0165	0.9585
10.8055	-0.61474	-3.2534	0.47207	1.2148	-0.79068	-3.7153	4.474	769.5967	-47.7134	279.7503	42.6509	769.9998	-0.0592	0.0182	-0.0073	-0.0462	0.0165	0.9585
10.819	-0.52713	-4.9075	0.50183	1.8483	-0.77484	-5.571	6.2082	770.5001	-48.66	279.2714	42.5108	767.9072	-0.0592	0.0182	-0.0073	-0.0462	0.0165	0.9585
10.8325	-0.26524	-6.467	0.48266	2.4445	-0.6308	-7.3247	7.5218	767.9724	-49.5632	277.5146	42.5704	762.7937	-0.0592	0.0182	-0.0073	-0.0462	0.0165	0.9585
10.846	0.26437	-7.4424	0.38213	2.8128	-0.28392	-8.4254	8.4952	762.1956	-50.4354	274.5617	42.8099	754.7886	-0.0592	0.0182	-0.0073	-0.0462	0.0165	0.9585
10.8595	1.1645	-7.0854	0.14473	2.6594	0.36183	-8.0182	9.2584	753.8959	-51.3186	270.6913	43.211	744.5325	-0.0592	0.0182	-0.0073	-0.0462	0.0165	0.9585
10.873	2.5173	-4.3395	-0.27686	1.5711	1.3877	-4.8964	9.9815	744.1616	-52.2518	266.3157	43.7321	732.9966	-0.0592	0.0182	-0.0073	-0.0462	0.0165	0.9585
10.8865	4.3656	2.1432	-0.92788	-0.97995	2.8552	2.4749	10.8397	734.1605	-53.2655	261.8775	44.3172	721.2314	-0.0592	0.0182	-0.0073	-0.0462	0.0165	0.9585
10.9	6.6473	13.8858	-1.8221	-5.5907	4.7505	15.8283	11.983	724.8204	-54.3548	257.7303	44.8904	710.0765	-0.0592	0.0182	-0.0073	-0.0462	0.0165	0.9585
10.9135	9.1279	32.3361	-2.9202	-12.8283	6.9325	36.7996	13.4889	716.5271	-55.4681	254.0297	45.3647	699.881	-0.0592	0.0182	-0.0073	-0.0462	0.0165	0.9585
10.927	11.3283	58.4318	-4.0981	-23.0582	9.07	66.4378	15.3263	708.9618	-56.4957	250.6751	45.6392	690.3549	-0.0592	0.0182	-0.0073	-0.0462	0.0165	0.9585
10.9405	12.4314	91.8951	-5.0992	-36.1698	10.5526	104.4277	17.3741	701.1573	-57.2703	247.3265	45.5971	680.623	-0.0592	0.0182	-0.0073	-0.0462	0.0165	0.9585
10.954	11.3814	130.4562	-5.498	-51.2722	10.4967	148.2244	19.4412	691.7224	-57.5918	243.4882	45.1199	669.4371	-0.0592	0.0182	-0.0073	-0.0462	0.0165	0.9585
10.9675	7.9102	169.8382	-4.7262	-66.6456	8.158	193.0541	21.3143	679.1953	-57.273	238.6395	44.1153	655.4829	-0.0592	0.0182	-0.0073	-0.0462	0.0165	0.9585
10.981	2.7666	204.5675	-2.2599	-80.1196	3.3102	232.7144	22.8328	662.4898	-56.2295	232.3911	42.5759	637.7806	-0.0592	0.0182	-0.0073	-0.0462	0.0165	0.9585
10.9945	-2.9619	231.8377	1.5702	-90.6105	-3.233	263.903	23.9665	641.2363	-54.5582	224.6021	40.619	615.9892	-0.0592	0.0182	-0.0073	-0.0462	0.0165	0.9585
11.008	-8.6598	253.1292	6.1333	-98.7085	-10.5331	288.2459	24.8016	615.67	-52.4943	215.3408	38.4409	590.2992	-0.0592	0.0182	-0.0073	-0.0462	0.0165	0.9585
11.0215	-13.9069	271.7898	10.729	-105.7544	-17.6716	309.4946	25.4756	586.2396	-50.2229	204.7592	36.167	561.0923	-0.0592	0.0182	-0.0073	-0.0462	0.0165	0.9585
11.035	-18.5378	291.0084	14.9568	-113.018	-24.1369	331.2428	26.0888	553.3821	-47.7154	193.0203	33.7404	528.7631	-0.0592	0.0182	-0.0073	-0.0462	0.0165	0.9585
11.0485	-22.477	312.9341	18.4866	-121.3513	-29.556	355.8303	26.6708	517.4266	-44.7922	180.2574	30.99	493.6218	-0.0592	0.0182	-0.0073	-0.0462	0.0165	0.9585
11.062	-25.6842	338.5231	21.4042	-131.1116	-34.0014	384.2605	27.1377	478.5616	-41.2884	166.5533	27.786	455.8589	-0.0592	0.0182	-0.0073	-0.0462	0.0165	0.9585
11.0755	-28.1892	367.9764	23.8553	-142.349	-37.6611	416.7099	27.313	436.9582	-37.1626	151.9703	24.1364	415.6574	-0.0592	0.0182	-0.0073	-0.0462	0.0165	0.9585
11.089	-30.0174	401.0809	26.3018	-154.9419	-41.039	452.9126	26.99	392.8974	-32.5602	136.5936	20.2266	373.3036	-0.0592	0.0182	-0.0073	-0.0462	0.0165	0.9585
11.1025	-31.1732	437.3868	29.0766	-168.689	-44.4971	492.3069	25.9503	346.9225	-27.7254	120.5916	16.3314	329.3259	-0.0592	0.0182	-0.0073	-0.0462	0.0165	0.9585
11.116	-31.7526	476.2321	32.502	-183.3205	-48.3947	534.1287	24.0338	299.9204	-22.9497	104.2528	12.7584	284.5592	-0.0592	0.0182	-0.0073	-0.0462	0.0165	0.9585
11.1295	-31.9014	516.914	36.5733	-198.5765	-52.7731	577.5533	21.2044	253.1773	-18.4713	88.0089	9.7334	240.2042	-0.0592	0.0182	-0.0073	-0.0462	0.0165	0.9585
11.143	-31.7581	558.853	41.1468	-214.2546	-57.5122	621.9171	17.5776	208.2571	-14.4865	72.3947	7.3983	197.7029	-0.0592	0.0182	-0.0073	-0.0462	0.0165	0.9585
11.1565	-31.402	601.4345	45.8481	-230.1513	-62.2354	666.5051	13.4193	166.7546	-11.0913	57.9649	5.7576	158.5037	-0.0592	0.0182	-0.0073	-0.0462	0.0165	0.9585
11.17	-30.873	643.7367	50.3893	-245.9373	-66.6402	710.3085	9.1007	129.9869	-8.3316	45.1786	4.7369	123.7984	-0.0592	0.0182	-0.0073	-0.0462	0.0165	0.9585
11.1835	-30.1998	684.4172	54.4992	-261.1111	-70.4518	751.8917	4.9918	98.7281	-6.1758	34.3066	4.188	94.2704	-0.0592	0.0182	-0.0073	-0.0462	0.0165	0.9585
11.197	-29.4009	721.8257	58.0749	-275.0412	-73.5728	789.5248	1.3395	73.1248	-4.5738	25.401	3.9821	70.0362	-0.0592	0.0182	-0.0073	-0.0462	0.0165	0.9585
11.2105	-28.4814	754.2992	61.0182	-287.0895	-75.9154	821.4891	-1.6856	52.8051	-3.4266	18.3339	3.9715	50.7431	-0.0592	0.0182	-0.0073	-0.0462	0.0165	0.9585
11.224	-27.3904	780.4314	63.3149	-296.717	-77.4576	846.3483	-3.9558	37.0587	-2.6204	12.8595	4.0083	35.7374	-0.0592	0.0182	-0.0073	-0.0462	0.0165	0.9585
11.2375	-26.0693	799.3014	64.9334	-303.5681	-78.1586	863.202	-5.4038	25.0517	-2.0278	8.6904	3.9504	24.2536	-0.0592	0.0182	-0.0073	-0.0462	0.0165	0.9585
11.251	-24.4769	810.5459	65.9066	-307.4984	-78.0447	871.7548	-5.9891	15.9928	-1.5574	5.5527	3.7005	15.5531	-0.0592	0.0182	-0.0073	-0.0462	0.0165	0.9585
11.2645	-22.6073	814.4101	66.2743	-308.5908	-77.1628	872.3547	-5.7378	9.2738	-1.1555	3.2319	3.2185	9.0727	-0.0592	0.0182	-0.0073	-0.0462	0.0165	0.9585
11.278	-20.4916	811.6726	66.1333	-307.1311	-75.6237	865.9127	-4.8301	4.4873	-0.81548	1.5862	2.5638	4.4365	-0.0592	0.0182	-0.0073	-0.0462	0.0165	0.9585
11.2915	-18.1777	803.5109	65.5877	-303.5606	-73.5611	853.7496	-3.6648	1.3668	-0.55017	0.52062	1.8866	1.4098	-0.0592	0.0182	-0.0073	-0.0462	0.0165	0.9585
11.305	-15.7427	791.3579	64.7722	-298.425	-71.149	837.4258	-2.5189	-0.42271	-0.3682	-0.082442	1.2946	-0.31845	-0.0592	0.0182	-0.0073	-0.0462	0.0165	0.9585
11.3185	-13.2287	776.8483	63.8196	-292.3574	-68.5517	818.6638	-1.5413	-1.2349	-0.25304	-0.3482	0.82706	-1.0813	-0.0592	0.0182	-0.0073	-0.0462	0.0165	0.9585
11.332	-10.6931	761.6987	62.8304	-286.0326	-65.9023	799.2438	-0.79306	-1.402	-0.18815	-0.393	0.49258	-1.2104	-0.0592	0.0182	-0.0073	-0.0462	0.0165	0.9585
11.3455	-8.1896	747.5133	61.8906	-280.085	-63.3173	780.8005	-0.27379	-1.1869	-0.15401	-0.3102	0.27413	-0.97313	-0.0592	0.0182	-0.0073	-0.0462	0.0165	0.9585
11.359	-5.7576	735.6015	61.0447	-275.04	-60.8659	764.6322	0.051532	-0.77289	-0.13536	-0.16451	0.14411	-0.54346	-0.0592	0.0182	-0.0073	-0.0462	0.0165	0.9585
11.3725	-3.4487	726.8917	60.3379	-271.274	-58.6166	751.6464	0.22621	-0.29585	-0.12271	-0.0017671	0.078451	-0.047278	-0.0592	0.0182	-0.0073	-0.0462	0.0165	0.9585
11.386	-1.2765	721.8795	59.7545	-268.9997	-56.5639	742.2886	0.28124	0.16137	-0.10621	0.15038	0.054985	0.43763	-0.0592	0.0182	-0.0073	-0.0462	0.0165	0.9585
11.3995	0.78978	720.6295	59.2821	-268.2578	-54.6827	736.5689	0.25686	0.54566	-0.093613	0.27445	0.066504	0.85304	-0.0592	0.0182	-0.0073	-0.0462	0.0165	0.9585
